<?xml version="1.0" encoding="utf-8"?>
<!-- Generator: Adobe Illustrator 19.0.0, SVG Export Plug-In . SVG Version: 6.00 Build 0)  -->
<svg version="1.1" id="Layer_1" xmlns="http://www.w3.org/2000/svg" xmlns:xlink="http://www.w3.org/1999/xlink" x="0px" y="0px"
	 viewBox="0 0 500 500" style="enable-background:new 0 0 500 500;" xml:space="preserve">
<style type="text/css">
	.st0{fill:none;stroke:#4D4D4D;stroke-width:6;stroke-miterlimit:10;}
</style>
<image style="display:none;overflow:visible;" width="460" height="460" id="XMLID_2_" xlink:href="../../../Documents/Web Development/BIO/IMG_4195.GIF"  transform="matrix(1.087 0 0 1.087 0 0)">
</image>
<g id="XMLID_6_">
	<path id="XMLID_1_" class="st0" d="M250.1,388.6c76,0,137.7-61.6,137.7-137.6c0-21,7.2-38.4-13.1-58.7s-30.5-16.6-38.1-48.4
		c-7.5-31.8-31-39.9-54.9-26.9c-11.9,6.5-21.6,11.9-31.7,11.9s-18.8-4.9-31.6-11.9c-23.9-13-47.4-4.9-54.9,26.9
		s-17.8,28.2-38.1,48.4S112.4,230,112.4,251C112.4,327,174.1,388.6,250.1,388.6z"/>
	<path id="XMLID_5_" class="st0" d="M249.9,388.6C173.9,388.6,112,327,112,251c0-21,13.7-30,13.1-58.7c-0.2-8.2,2.8-48.6,38.1-48.4
		c37.5,0.2,38.6-5.1,54.9-26.9c13.7-18.4,25.9-20.8,31.9-20.8c6.2,0,18.1,2.4,31.9,20.8c16.3,21.8,17.4,27.1,54.9,26.9
		c35.3-0.2,38.2,40.2,38.1,48.4c-0.6,28.6,13.1,37.7,13.1,58.7C387.8,327,325.9,388.6,249.9,388.6z"/>
</g>
</svg>
